HIERARCHY
ROOT pelvis
{
  OFFSET 0 100 0
  CHANNELS 6 Xposition Yposition Zposition Zrotation Xrotation Yrotation
  JOINT pelvis_right_femur
  {
    OFFSET -10.78128 -3.44521 -0.5502486
    CHANNELS 3 Zrotation Xrotation Yrotation
    JOINT right_femur_tibia
    {
      OFFSET -0.8047443 -44.0398 -0.1307829
      CHANNELS 3 Zrotation Xrotation Yrotation
      JOINT right_tibia_foot
      {
        OFFSET 3.006224 -47.83518 -5
        CHANNELS 3 Zrotation Xrotation Yrotation
        End Site
        {
          OFFSET 0 -5 15
        }
      }
    }
  }
  JOINT pelvis_left_femur
  {
    OFFSET 10.78128 -3.44521 -0.5502486
    CHANNELS 3 Zrotation Xrotation Yrotation
    JOINT left_femur_tibia
    {
      OFFSET 0.8047443 -44.0398 -0.1307829
      CHANNELS 3 Zrotation Xrotation Yrotation
      JOINT left_tibia_foot
      {
        OFFSET -4.370144 -48.10324 -4.275266
        CHANNELS 3 Zrotation Xrotation Yrotation
        End Site
        {
          OFFSET 0 -5 15
        }
      }
    }
  }
  JOINT pelvis_spine1
  {
    OFFSET 0 6.468898 -3.129235
    CHANNELS 3 Zrotation Xrotation Yrotation
    JOINT spine1
    {
      OFFSET 0 23.15396 4.99043
      CHANNELS 3 Zrotation Xrotation Yrotation
      JOINT spine2
      {
        OFFSET 0 20.79997 -5.064912
        CHANNELS 3 Zrotation Xrotation Yrotation
        JOINT neck
        {
          OFFSET 0 14.38658 9.616178
          CHANNELS 3 Zrotation Xrotation Yrotation
          End Site
          {
            OFFSET 0 20 0
          }
        }
      }
      JOINT right_manubrium
      {
        OFFSET -5.722621 16.35077 3.967754
        CHANNELS 3 Zrotation Xrotation Yrotation
        JOINT right_clavicle
        {
          OFFSET -13.16364 1.694482 -4.693211
          CHANNELS 3 Zrotation Xrotation Yrotation
          JOINT right_humerus
          {
            OFFSET -28.5034 -0.3100689 -2.792744
            CHANNELS 3 Zrotation Xrotation Yrotation
            JOINT right_radius
            {
              OFFSET -25.15693 0.02248979 -1.271978
              CHANNELS 3 Zrotation Xrotation Yrotation
              End Site
              {
                OFFSET -15 0 0
              }
            }
          }
        }
      }
      JOINT left_manubrium
      {
        OFFSET 5.722621 16.35077 3.967754
        CHANNELS 3 Zrotation Xrotation Yrotation
        JOINT left_clavicle
        {
          OFFSET 13.16364 1.694482 -4.693211
          CHANNELS 3 Zrotation Xrotation Yrotation
          JOINT left_humerus
          {
            OFFSET 29.39168 -1.063119 -2.237045
            CHANNELS 3 Zrotation Xrotation Yrotation
            JOINT left_radius
            {
              OFFSET 24.59957 -0.9528479 0.9047498
              CHANNELS 3 Zrotation Xrotation Yrotation
              End Site
              {
                OFFSET 15 -0 -0
              }
            }
          }
        }
      }
    }
  }
}
MOTION
Frames: 19
Frame Time: 0.0416666666667
0 103.5113 0 0.706308 -1.823092 0.804288 1.058793 -21.86338 2.699301 -0 34.55249 -0 -4.455502 -4.989983 -3.489208 -6.070758 12.42351 -17.21675 0 -5.486361 0 2.551831 -21.85821 19.87358 -3.520984 -1.462694 2.729258 1.570923 8.750916 -7.401223 1.290571 21.99563 7.382003 3.239122 -21.79817 8.920867 3.901675 -18.24068 10.51922 86.89699 31.10868 -17.99485 -0 0 14.20614 -15.0324 10.15002 8.731112 6.445992 -20.08573 -3.367582 -89.50356 26.7494 16.82648 0 0 -18.68325 3.591117 14.83948 9.391346
0.5774595 102.2992 3.66553 0.7559111 -1.784543 1.605144 0.9653368 -21.7185 2.723512 -0 35.0259 -0 -4.416414 -5.035586 -3.448473 -6.110911 12.31473 -17.3474 0 -6.313689 0 2.686956 -21.95518 20.03222 -3.574422 -1.477474 2.736757 1.550534 8.723537 -7.371737 1.287287 21.99499 7.403091 3.241565 -21.81644 8.950499 3.928437 -18.31885 10.50842 86.77942 31.17488 -17.82516 -0 0 14.37697 -15.03049 10.1073 8.786615 6.439308 -20.00272 -3.339591 -89.61382 26.8214 17.01033 0 0 -18.50843 3.525403 14.85668 9.478336
1.032691 100.9343 7.179832 0.3665091 -0.9740442 2.216748 2.022973 -24.78797 2.690043 -0 28.49426 -0 -5.513164 -6.343674 -3.311355 -5.617853 13.75005 -17.34077 0 -4.700071 0 2.819859 -22.26843 19.54941 -3.201212 -1.649965 2.659813 2.019457 8.802102 -7.926188 1.167787 21.73876 7.33611 3.315357 -22.53443 8.790067 3.837151 -18.37915 10.65641 87.53286 31.38322 -19.52394 -0 0 13.70927 -13.87 10.06953 7.969061 6.798923 -21.05798 -3.354032 -89.44181 26.70411 16.53889 0 0 -20.43559 4.370938 15.44795 8.432491
1.398363 99.40344 10.56772 0.08631319 -0.4356208 2.720685 2.751511 -26.87283 2.63462 -0 23.92535 -0 -6.363104 -7.189823 -3.176014 -5.268218 14.71925 -17.34097 0 -3.780705 0 3.012357 -22.47536 19.25831 -2.93798 -1.792933 2.60528 2.338947 8.891196 -8.309984 1.0772 21.56205 7.283128 3.371281 -23.04662 8.664585 3.731699 -18.48512 10.76797 88.09373 31.43625 -20.68834 -0 0 13.27038 -13.10107 10.00193 7.422925 7.062409 -21.83407 -3.390794 -89.34761 26.51437 16.27016 0 0 -21.71773 5.094381 15.90234 7.528265
1.671647 97.79842 13.93972 -0.1419254 -0.149943 3.118254 3.407791 -28.47357 2.595918 -0 20.10627 -0 -6.968661 -7.653411 -3.181444 -4.973848 15.5388 -17.09471 0 -1.572092 0 2.858496 -22.41692 18.7601 -2.667692 -1.852482 2.558746 2.5829 8.993896 -8.610803 1.026757 21.45073 7.208935 3.399849 -23.33503 8.528717 3.618096 -18.396 10.85898 88.67134 31.33861 -21.75001 -0 0 12.66351 -12.61151 10.04055 6.965947 7.240236 -22.48082 -3.46051 -89.08105 26.26594 15.74597 0 0 -22.87357 5.668118 16.14013 6.806086
1.863161 96.18035 17.36912 -0.3111381 -0.06327292 3.422763 3.942362 -29.61316 2.530876 -0 17.12894 -0 -7.402795 -7.780871 -3.248052 -4.746059 16.2001 -16.71237 -0 1.163875 -0 2.548828 -22.1919 18.19569 -2.417178 -1.863928 2.516699 2.752705 9.114055 -8.831365 1.003237 21.39326 7.126401 3.41151 -23.45845 8.392973 3.489765 -18.21476 10.93209 89.22127 31.11158 -22.64204 -0 0 12.00627 -12.36338 10.12954 6.61589 7.352352 -23.00707 -3.562501 -88.73719 25.94789 15.1241 0 0 -23.81974 6.155102 16.24226 6.183306
1.979699 94.6189 20.944 -0.4212908 -0.1811999 3.643837 4.385739 -30.30956 2.46765 -0 14.91096 -0 -7.612664 -7.591987 -3.41722 -4.580992 16.71424 -16.14553 -0 4.814842 -0 1.977724 -21.75783 17.49634 -2.173762 -1.806173 2.482028 2.853156 9.238675 -8.973936 1.013794 21.39149 7.031533 3.401215 -23.39397 8.256404 3.363269 -17.8809 10.98528 89.74717 30.78039 -23.40119 -0 0 11.24359 -12.35001 10.30697 6.353081 7.387593 -23.40043 -3.687626 -88.27746 25.59778 14.32702 0 0 -24.62013 6.482611 16.16774 5.753616
2.029945 93.18173 24.74924 -0.4727718 -0.4984082 3.790962 4.738825 -30.55097 2.394552 -0 13.4096 -0 -7.610651 -7.102512 -3.678761 -4.474339 17.06006 -15.39302 -0 9.346286 -0 1.166351 -21.10618 16.67883 -1.935395 -1.682696 2.45741 2.885143 9.37153 -9.038642 1.057057 21.44326 6.922734 3.370333 -23.1477 8.116755 3.23444 -17.40832 11.02118 90.24339 30.34348 -24.0197 -0 0 10.38855 -12.56937 10.57053 6.179967 7.347999 -23.66661 -3.837545 -87.71743 25.20292 13.37681 0 0 -25.26912 6.661025 15.92751 5.502167
2.022353 91.94257 28.8743 -0.4654526 -1.020509 3.871583 5.0131 -30.2798 2.324955 -0 12.59021 -0 -7.369503 -6.342548 -4.048621 -4.418692 17.17927 -14.42848 -0 14.90491 -0 0.07986274 -20.19614 15.73528 -1.696519 -1.483979 2.452011 2.846891 9.507787 -9.018968 1.136664 21.54916 6.795762 3.316267 -22.70696 7.972218 3.108917 -16.78465 11.04035 90.69317 29.8124 -24.48349 -0 0 9.44441 -13.02914 10.93697 6.101004 7.225768 -23.79088 -4.005604 -87.06051 24.77416 12.27259 0 0 -25.76724 6.652287 15.5022 5.477454
1.966644 90.97912 33.40822 -0.4000329 -1.752894 3.890968 5.214386 -29.39034 2.264368 -0 12.41494 -0 -6.876963 -5.35654 -4.529118 -4.397969 16.96455 -13.23196 -0 21.53896 -0 -1.284501 -18.9811 14.68724 -1.45291 -1.205854 2.480514 2.733814 9.647569 -8.903663 1.254539 21.70849 6.644755 3.237392 -22.0642 7.818903 2.985676 -16.02357 11.04536 91.06806 29.19132 -24.75196 -0 0 8.446073 -13.74512 11.41386 6.133286 7.014537 -23.75856 -4.185904 -86.33195 24.30861 11.0551 0 0 -26.084 6.436851 14.8813 5.70423
1.874604 90.36966 38.43221 -0.280547 -2.689024 3.850635 5.352553 -27.7216 2.229979 -0 12.81006 -0 -6.123448 -4.245526 -5.113873 -4.378198 16.23572 -11.79461 -0 29.2104 -0 -2.914401 -17.41053 13.58428 -1.201663 -0.8460943 2.568333 2.54132 9.787035 -8.676489 1.411616 21.91645 6.46257 3.131857 -21.21987 7.652842 2.866151 -15.16248 11.04002 91.31372 28.50092 -24.7544 -0 0 7.472718 -14.72793 12.00461 6.303142 6.707644 -23.54543 -4.362946 -85.58341 23.8192 9.814603 0 0 -26.16467 5.98409 14.05543 6.223396
1.761846 90.1778 44.00025 -0.1200542 -3.787099 3.745726 5.441785 -25.07423 2.243912 -0 13.60249 -0 -5.139971 -3.205865 -5.758341 -4.293341 14.7274 -10.14805 -0 37.59724 -0 -4.736113 -15.46197 12.53302 -0.9437224 -0.4162613 2.753929 2.269956 9.920561 -8.321169 1.60261 22.15743 6.242319 3.000442 -20.20708 7.469436 2.749927 -14.29849 11.03195 91.3431 27.78431 -24.38349 -0 0 6.684026 -15.96236 12.69045 6.64437 6.307035 -23.13052 -4.509598 -84.9173 23.33575 8.739555 0 0 -25.92048 5.279969 13.04247 7.057186
1.64967 90.42178 50.10801 0.05208673 -4.938271 3.560866 5.503763 -21.26911 2.333247 -0 14.44748 -0 -4.03498 -2.570749 -6.350184 -4.037077 12.10993 -8.396673 -0 45.89573 -0 -6.581639 -13.19178 11.70948 -0.6872867 0.04694129 3.087905 1.934303 10.03833 -7.831226 1.810379 22.39708 5.981379 2.849251 -19.12066 7.265016 2.635833 -13.61605 11.03384 91.03329 27.12216 -23.50408 -0 0 6.346459 -17.37162 13.41398 7.18516 5.833334 -22.51066 -4.582647 -84.50367 22.92026 8.150488 0 0 -25.23785 4.343603 11.91526 8.188427
1.566313 91.03029 56.65953 0.1877621 -5.950925 3.267642 5.5619 -16.27492 2.512404 -0 14.82087 -0 -3.027943 -2.772313 -6.690533 -3.486776 8.103896 -6.731852 -0 52.69449 -0 -8.165771 -10.79404 11.33809 -0.4509093 0.4708412 3.617645 1.570869 10.13046 -7.225601 2.000905 22.58002 5.687706 2.69293 -18.13718 7.038706 2.518646 -13.38893 11.06326 90.25401 26.62082 -21.994 -0 0 6.806998 -18.78951 14.06527 7.924688 5.336845 -21.72765 -4.532386 -84.5722 22.65128 8.478438 0 0 -24.01124 3.262481 10.83284 9.511915
1.545322 91.81342 63.46109 0.2359773 -6.59976 2.831891 5.626068 -10.36137 2.759467 -0 14.21747 -0 -2.398362 -4.147942 -6.555374 -2.58358 2.705502 -5.382169 -0 56.28848 -0 -9.143555 -8.596213 11.60193 -0.2620189 0.7585344 4.352505 1.232967 10.19526 -6.558684 2.129321 22.64696 5.384915 2.553619 -17.47657 6.796243 2.387937 -13.89013 11.13606 88.94315 26.35993 -19.82628 -0 0 8.346518 -19.98788 14.5024 8.810909 4.893297 -20.88231 -4.331125 -85.33736 22.56428 10.09828 0 0 -22.21017 2.203315 10.02447 10.81346
1.618935 92.4982 70.27063 0.1792203 -6.757752 2.23576 5.676044 -4.124898 3.009881 -0 12.558 -0 -2.318486 -6.642782 -5.853856 -1.422461 -3.615754 -4.504206 -0 55.58643 -0 -9.274727 -6.922231 12.51902 -0.1475347 0.836385 5.228335 0.9634747 10.24559 -5.906176 2.163329 22.57352 5.108177 2.45218 -17.28188 6.554017 2.232758 -15.20722 11.25357 87.20013 26.32087 -17.15065 -0 0 10.94535 -20.79448 14.62045 9.750397 4.571987 -20.10281 -4.007075 -86.85109 22.57927 13.03708 0 0 -19.94186 1.362206 9.684003 11.83141
1.80871 92.8367 76.88255 0.05567991 -6.503002 1.497765 5.663713 1.743664 3.195914 -0 10.41736 -0 -2.709696 -9.717125 -4.734768 -0.2359639 -10.02273 -4.108835 -0 50.95782 -0 -8.595409 -5.902036 13.90176 -0.1219977 0.70767 6.118492 0.765541 10.29942 -5.327128 2.108209 22.39665 4.88903 2.396129 -17.5066 6.338252 2.053948 -17.11938 11.39431 85.28838 26.38608 -14.27694 -0 0 14.1911 -21.21373 14.42319 10.65554 4.393147 -19.46953 -3.639861 -88.89271 22.53559 16.82216 0 0 -17.43697 0.8562217 9.829913 12.40698
2.120868 92.70647 83.18686 -0.06743095 -6.063427 0.6676535 5.537707 6.777406 3.297768 -0 8.700118 -0 -3.307708 -12.64597 -3.486602 0.7404866 -15.71956 -4.094575 -0 44.0114 -0 -7.405808 -5.433683 15.46051 -0.1837205 0.4509478 6.89823 0.6065444 10.36191 -4.838741 2.003566 22.1919 4.741918 2.376862 -17.94777 6.175384 1.870103 -19.2083 11.52393 83.50175 26.43091 -11.53562 -0 0 17.4938 -21.40476 14.01738 11.48075 4.319763 -18.97313 -3.310399 -91.05689 22.33607 20.71685 0 0 -14.94873 0.6567487 10.28855 12.58132
2.549387 92.12724 89.17438 -0.1380036 -5.667745 -0.1938738 5.265552 10.83014 3.34426 -0 8.121656 -0 -3.848027 -14.88494 -2.357934 1.37481 -20.25184 -4.330525 -0 36.55776 -0 -6.077845 -5.318409 16.94324 -0.3206841 0.1648977 7.495643 0.4473222 10.42341 -4.426671 1.895674 22.02775 4.664548 2.378618 -18.38385 6.08138 1.706739 -21.08874 11.61408 82.0331 26.39337 -9.147843 -0 0 20.38145 -21.5537 13.53731 12.21723 4.291458 -18.54973 -3.063218 -92.97208 22.01326 24.10977 0 0 -12.65893 0.6385616 10.82312 12.52714
